<?xml version="1.0" encoding="UTF-8" standalone="no"?>
<!-- Created with Inkscape (http://www.inkscape.org/) -->

<svg
   width="355mm"
   height="50mm"
   viewBox="0 0 355 50"
   version="1.1"
   id="svg870"
   inkscape:version="1.1.2 (b8e25be833, 2022-02-05)"
   sodipodi:docname="TextOnlyWhite.svg"
   xmlns:inkscape="http://www.inkscape.org/namespaces/inkscape"
   xmlns:sodipodi="http://sodipodi.sourceforge.net/DTD/sodipodi-0.dtd"
   xmlns="http://www.w3.org/2000/svg"
   xmlns:svg="http://www.w3.org/2000/svg">
  <sodipodi:namedview
     id="namedview872"
     pagecolor="#ffffff"
     bordercolor="#666666"
     borderopacity="1.0"
     inkscape:pageshadow="2"
     inkscape:pageopacity="0.0"
     inkscape:pagecheckerboard="true"
     inkscape:document-units="mm"
     showgrid="false"
     inkscape:zoom="0.78593392"
     inkscape:cx="563.66062"
     inkscape:cy="-74.433739"
     inkscape:window-width="1920"
     inkscape:window-height="991"
     inkscape:window-x="-9"
     inkscape:window-y="-9"
     inkscape:window-maximized="1"
     inkscape:current-layer="text3148">
    <inkscape:grid
       type="xygrid"
       id="grid7777" />
  </sodipodi:namedview>
  <defs
     id="defs867" />
  <g
     inkscape:label="Calque 1"
     inkscape:groupmode="layer"
     id="layer1">
    <g
       aria-label="Wingei Software"
       id="text3148"
       style="font-size:50.8px;line-height:1.25;stroke-width:0.264583"
       transform="translate(-120.18239,-36.667073)">
      <path
         d="m 128.08656,74.138474 -6.7564,-35.0012 h 5.0292 l 5.4356,30.5816 h 1.3716 l 6.604,-30.2768 h 5.6388 l 6.604,30.2768 h 1.3716 l 5.3848,-30.5816 h 5.0292 l -6.7564,35.0012 h -8.382 l -6.4008,-30.48 h 0.6096 l -6.4008,30.48 z"
         style="font-weight:600;font-family:'Cairo Play';-inkscape-font-specification:'Cairo Play Semi-Bold';fill:#ffffff"
         id="path12377" />
      <path
         d="m 168.62499,74.138474 v -25.4508 h 4.7244 v 25.4508 z"
         style="font-weight:600;font-family:'Cairo Play';-inkscape-font-specification:'Cairo Play Semi-Bold';fill:#ffffff;fill-opacity:1"
         id="path12379"
         sodipodi:nodetypes="ccccc" />
      <path
         d="m 180.15656,74.138474 v -25.4508 h 4.7244 v 1.778 q 0.8128,-0.508 2.0828,-1.016 1.27,-0.508 2.6924,-0.8636 1.4224,-0.4064 2.7432,-0.4064 2.6416,0 4.318,0.7112 1.7272,0.6604 2.6924,2.1844 0.9652,1.4732 1.3716,3.8608 0.4064,2.3876 0.4064,5.7912 v 13.4112 h -4.7752 v -13.1572 q 0,-3.1496 -0.3556,-5.0292 -0.3556,-1.8796 -1.4224,-2.6924 -1.0668,-0.8636 -3.2004,-0.8636 -1.1684,0 -2.4384,0.254 -1.2192,0.254 -2.3368,0.6604 -1.0668,0.4064 -1.778,0.762 v 20.066 z"
         style="font-weight:600;font-family:'Cairo Play';-inkscape-font-specification:'Cairo Play Semi-Bold';fill:#ffffff"
         id="path12381" />
      <path
         d="m 217.90094,85.974873 q -4.0132,0 -6.5024,-0.6604 -2.4892,-0.6604 -3.6576,-2.3368 -1.1684,-1.6256 -1.1684,-4.5212 0,-1.4732 0.4064,-2.54 0.4572,-1.016 1.3208,-1.879599 0.9144,-0.9144 2.2352,-1.8796 -0.7112,-0.508 -1.1176,-1.4732 -0.3556,-0.9652 -0.3556,-2.1336 0,-0.3556 0.3048,-1.0668 0.3048,-0.7112 0.7112,-1.4732 0.4572,-0.762 0.8128,-1.4224 -1.0668,-0.508 -1.9812,-1.3716 -0.8636,-0.9144 -1.4224,-2.4384 -0.5588,-1.524 -0.5588,-3.8608 0,-3.1496 1.1684,-5.08 1.2192,-1.9304 3.4544,-2.794 2.2352,-0.8636 5.1816,-0.8636 1.3716,0 2.8956,0.2032 1.524,0.2032 2.3876,0.4572 l 7.7724,-0.2032 v 3.7084 l -4.5212,-0.1016 q 0.6604,0.6604 1.0668,1.778 0.4572,1.1176 0.4572,2.8956 0,3.3528 -1.1176,5.2832 -1.1176,1.8796 -3.4036,2.6416 -2.2352,0.7112 -5.6388,0.7112 -0.3556,0 -1.1684,-0.0508 -0.762,-0.1016 -1.1684,-0.1524 -0.3048,0.6604 -0.6096,1.524 -0.254,0.8128 -0.254,1.1684 0,0.6604 0.2032,1.0668 0.2032,0.4064 0.762,0.6604 0.6096,0.2032 1.8288,0.3048 1.2192,0.0508 3.3528,0.0508 3.6576,0 5.842,0.6604 2.1844,0.6096 3.0988,2.2352 0.9144,1.5748 0.9144,4.622799 0,4.4196 -3.048,6.35 -3.048,1.9812 -8.4836,1.9812 z m -0.0508,-3.81 q 3.556,0 5.2324,-0.9652 1.6764,-0.9652 1.6764,-3.2004 0,-1.7272 -0.5588,-2.54 -0.508,-0.812799 -1.8288,-1.066799 -1.3208,-0.254 -3.5052,-0.254 -0.4572,0 -1.27,0 -0.762,-0.0508 -1.6256,-0.0508 -0.8128,-0.0508 -1.4732,-0.1016 -0.6604,-0.0508 -0.9144,-0.0508 -0.9144,0.7112 -1.524,1.269999 -0.5588,0.6096 -0.8128,1.2192 -0.2032,0.6604 -0.2032,1.524 0,1.524 0.6096,2.4384 0.6096,0.9652 2.0828,1.3716 1.4732,0.4064 4.1148,0.4064 z m -1.1176,-20.167599 q 2.9464,0 4.1656,-1.1684 1.27,-1.1684 1.27,-3.9116 0,-2.7432 -1.27,-3.9116 -1.2192,-1.1684 -4.1656,-1.1684 -2.7432,0 -3.9624,1.1684 -1.1684,1.1684 -1.1684,3.9116 0,2.7432 1.1684,3.9116 1.2192,1.1684 3.9624,1.1684 z"
         style="font-weight:600;font-family:'Cairo Play';-inkscape-font-specification:'Cairo Play Semi-Bold';fill:#ffffff"
         id="path12383" />
      <path
         d="m 243.047,74.646474 q -3.9116,0 -6.1976,-1.4224 -2.2352,-1.4732 -3.2512,-4.3688 -1.016,-2.8956 -1.016,-7.2644 0,-4.7752 1.3208,-7.7216 1.3716,-2.9464 3.81,-4.318 2.4384,-1.3716 5.842,-1.3716 5.2324,0 7.874,2.8448 2.6924,2.794 2.6924,9.0424 l -0.254,3.2004 h -16.4592 q 0.0508,3.6576 1.3716,5.5372 1.3208,1.8288 4.7752,1.8288 1.4732,0 3.2004,-0.0508 1.778,-0.1016 3.5052,-0.2032 1.7272,-0.1016 2.9464,-0.2032 l 0.1016,3.556 q -1.27,0.2032 -3.048,0.4064 -1.778,0.254 -3.7084,0.3556 -1.8796,0.1524 -3.5052,0.1524 z m -5.6388,-14.8844 h 11.9888 q 0,-4.318 -1.4224,-6.0452 -1.3716,-1.7272 -4.4196,-1.7272 -1.9812,0 -3.3528,0.762 -1.3716,0.762 -2.0828,2.4892 -0.7112,1.6764 -0.7112,4.5212 z"
         style="font-weight:600;font-family:'Cairo Play';-inkscape-font-specification:'Cairo Play Semi-Bold';fill:#ffffff"
         id="path12385" />
      <path
         d="m 259.60781,43.556874 v -4.9276 h 4.7244 v 4.9276 z"
         style="font-weight:600;font-family:'Cairo Play';-inkscape-font-specification:'Cairo Play Semi-Bold';fill:#ef8354;fill-opacity:1"
         id="path12387"
         sodipodi:nodetypes="ccccc" />
      <path
         d="m 292.88176,74.646474 q -1.6256,0 -3.7592,-0.2032 -2.0828,-0.2032 -4.1148,-0.508 -2.032,-0.3048 -3.556,-0.508 l 0.4064,-3.9624 q 1.4732,0.1524 3.4544,0.4064 2.032,0.2032 3.9624,0.3556 1.9304,0.1524 3.302,0.1524 2.3368,0 3.8608,-0.6604 1.524,-0.7112 2.286,-2.0828 0.762,-1.3716 0.762,-3.556 0,-1.778 -0.7112,-2.794 -0.6604,-1.0668 -2.286,-1.6764 -1.6256,-0.6604 -4.3688,-1.1684 -2.794,-0.5588 -4.8768,-1.27 -2.0828,-0.762 -3.4544,-1.8796 -1.3716,-1.1176 -2.032,-2.794 -0.6096,-1.7272 -0.6096,-4.2164 0,-3.556 1.3716,-5.6896 1.4224,-2.1336 4.0132,-3.0988 2.6416,-0.9652 6.1468,-0.9652 1.5748,0 3.556,0.2032 2.032,0.1524 3.9624,0.4064 1.9812,0.254 3.4036,0.508 l -0.3556,4.0132 q -1.4732,-0.2032 -3.4544,-0.3556 -1.9304,-0.2032 -3.7592,-0.3556 -1.8288,-0.1524 -2.9464,-0.1524 -2.3368,0 -3.9116,0.5588 -1.524,0.5588 -2.3368,1.6764 -0.762,1.1176 -0.762,2.8956 0,2.032 0.762,3.0988 0.762,1.0668 2.54,1.6764 1.778,0.6096 4.6736,1.3208 2.7432,0.6096 4.6736,1.3208 1.9812,0.7112 3.2512,1.778 1.27,1.0668 1.8288,2.6416 0.6096,1.5748 0.6096,3.9624 0,3.9116 -1.4224,6.2992 -1.3716,2.3876 -3.9624,3.5052 -2.5908,1.1176 -6.1468,1.1176 z"
         style="font-weight:600;font-family:'Cairo Play';-inkscape-font-specification:'Cairo Play Semi-Bold';fill:#ffffff"
         id="path12389" />
      <path
         d="m 320.11055,74.646474 q -4.2672,0 -6.7056,-1.4224 -2.4384,-1.4732 -3.4544,-4.4704 -1.016,-2.9972 -1.016,-7.62 0,-4.4196 1.0668,-7.2644 1.1176,-2.8448 3.556,-4.2672 2.4892,-1.4224 6.5532,-1.4224 4.1148,0 6.5532,1.4224 2.4384,1.4224 3.5052,4.2672 1.1176,2.8448 1.1176,7.2644 0,4.6228 -1.016,7.62 -0.9652,2.9972 -3.4036,4.4704 -2.4384,1.4224 -6.7564,1.4224 z m 0,-4.0132 q 2.6924,0 4.064,-0.9652 1.3716,-0.9652 1.8288,-3.048 0.4572,-2.1336 0.4572,-5.4864 0,-3.302 -0.5588,-5.2324 -0.5588,-1.9812 -1.9304,-2.8448 -1.3716,-0.8636 -3.8608,-0.8636 -2.4384,0 -3.8608,0.8636 -1.3716,0.8636 -1.9304,2.8448 -0.5588,1.9304 -0.5588,5.2324 0,3.3528 0.4572,5.4864 0.4572,2.0828 1.778,3.048 1.3716,0.9652 4.1148,0.9652 z"
         style="font-weight:600;font-family:'Cairo Play';-inkscape-font-specification:'Cairo Play Semi-Bold';fill:#ffffff"
         id="path12391" />
      <path
         d="m 337.94141,74.138474 v -21.4376 h -2.9972 v -4.0132 h 2.9972 v -1.9812 q 0,-3.6576 0.6604,-5.6896 0.6604,-2.0828 2.2352,-2.8448 1.5748,-0.8128 4.1656,-0.8128 0.6604,0 1.7272,0.0508 1.1176,0.0508 2.1336,0.1524 1.016,0.0508 1.4732,0.1524 l -0.0508,3.81 q -0.8636,-0.0508 -2.0828,-0.0508 -1.2192,0 -1.9812,0 -1.3716,0 -2.1336,0.4572 -0.762,0.4064 -1.1176,1.5748 -0.3048,1.1176 -0.3048,3.2004 v 1.9812 h 7.0104 v 4.0132 h -7.0104 v 21.4376 z"
         style="font-weight:600;font-family:'Cairo Play';-inkscape-font-specification:'Cairo Play Semi-Bold';fill:#ffffff"
         id="path12393" />
      <path
         d="m 362.42695,74.697274 q -2.6924,0 -4.318,-0.8128 -1.5748,-0.8128 -2.286,-2.794 -0.6604,-2.032 -0.6604,-5.6896 v -12.7 h -3.4544 v -4.0132 h 3.4544 v -7.4676 h 4.6736 v 7.4676 h 7.5692 v 4.0132 h -7.5692 v 11.3792 q 0,2.4892 0.2032,3.9116 0.254,1.3716 0.9652,1.9304 0.7112,0.5588 2.2352,0.5588 0.508,0 1.27,0 0.762,-0.0508 1.5748,-0.1016 0.8128,-0.1016 1.4224,-0.1524 l 0.254,3.8608 q -0.762,0.1524 -1.778,0.254 -0.9652,0.1524 -1.9304,0.254 -0.9652,0.1016 -1.6256,0.1016 z"
         style="font-weight:600;font-family:'Cairo Play';-inkscape-font-specification:'Cairo Play Semi-Bold';fill:#ffffff"
         id="path12395" />
      <path
         d="m 375.58419,74.138474 -5.6896,-25.4508 h 4.8768 l 4.4704,21.3868 h 0.8636 l 5.4356,-20.828 h 4.7752 l 5.4864,20.828 h 0.8128 l 4.5212,-21.3868 h 4.7244 l -5.6388,25.4508 h -7.5692 l -4.826,-18.7452 -4.7752,18.7452 z"
         style="font-weight:600;font-family:'Cairo Play';-inkscape-font-specification:'Cairo Play Semi-Bold';fill:#ffffff"
         id="path12397" />
      <path
         d="m 416.37664,74.646474 q -3.6068,0 -5.4864,-1.9812 -1.8796,-1.9812 -1.8796,-5.842 0,-2.5908 0.9144,-4.1656 0.9144,-1.6256 2.6924,-2.4384 1.8288,-0.8128 4.5212,-0.9652 l 7.366,-0.7112 v -1.9812 q 0,-2.3876 -1.0668,-3.3528 -1.0668,-1.016 -3.2004,-1.016 -1.3208,0 -3.0988,0.1016 -1.778,0.1016 -3.5052,0.254 -1.7272,0.1524 -3.0988,0.3048 l -0.2032,-3.4544 q 1.27,-0.3048 2.9972,-0.5588 1.778,-0.254 3.7084,-0.4572 1.9304,-0.2032 3.556,-0.2032 2.9972,0 4.9276,0.8636 1.9304,0.8636 2.8448,2.6924 0.9144,1.8288 0.9144,4.7244 v 12.4968 q 0.1016,1.016 0.8128,1.524 0.762,0.4572 1.8796,0.6096 l -0.1524,3.5052 q -0.7112,0 -1.4224,-0.0508 -0.7112,0 -1.3208,-0.1016 -0.6096,-0.1016 -1.1684,-0.254 -0.8128,-0.2032 -1.4732,-0.5588 -0.6096,-0.4064 -1.1684,-0.9144 -0.9144,0.4064 -2.3876,0.8636 -1.4732,0.4572 -3.1496,0.762 -1.6764,0.3048 -3.3528,0.3048 z m 0.9652,-3.7592 q 1.27,0 2.5908,-0.254 1.3716,-0.254 2.5908,-0.5588 1.2192,-0.3556 1.9812,-0.6096 v -7.62 l -6.7564,0.6604 q -2.1336,0.1524 -3.048,1.2192 -0.9144,1.016 -0.9144,2.9464 0,1.9812 0.8636,3.0988 0.9144,1.1176 2.6924,1.1176 z"
         style="font-weight:600;font-family:'Cairo Play';-inkscape-font-specification:'Cairo Play Semi-Bold';fill:#ffffff"
         id="path12399" />
      <path
         d="m 436.34101,74.138474 v -25.4508 h 4.7244 v 3.302 q 0.9144,-0.6604 2.3368,-1.4224 1.4224,-0.762 3.0988,-1.4224 1.7272,-0.7112 3.4036,-1.016 v 4.7244 q -1.6256,0.3048 -3.3528,0.8636 -1.6764,0.5588 -3.1496,1.2192 -1.4224,0.6096 -2.3368,1.1176 v 18.0848 z"
         style="font-weight:600;font-family:'Cairo Play';-inkscape-font-specification:'Cairo Play Semi-Bold';fill:#ffffff"
         id="path12401" />
      <path
         d="m 462.96021,74.646474 q -3.9116,0 -6.1976,-1.4224 -2.2352,-1.4732 -3.2512,-4.3688 -1.016,-2.8956 -1.016,-7.2644 0,-4.7752 1.3208,-7.7216 1.3716,-2.9464 3.81,-4.318 2.4384,-1.3716 5.842,-1.3716 5.2324,0 7.874,2.8448 2.6924,2.794 2.6924,9.0424 l -0.254,3.2004 h -16.4592 q 0.0508,3.6576 1.3716,5.5372 1.3208,1.8288 4.7752,1.8288 1.4732,0 3.2004,-0.0508 1.778,-0.1016 3.5052,-0.2032 1.7272,-0.1016 2.9464,-0.2032 l 0.1016,3.556 q -1.27,0.2032 -3.048,0.4064 -1.778,0.254 -3.7084,0.3556 -1.8796,0.1524 -3.5052,0.1524 z m -5.6388,-14.8844 h 11.9888 q 0,-4.318 -1.4224,-6.0452 -1.3716,-1.7272 -4.4196,-1.7272 -1.9812,0 -3.3528,0.762 -1.3716,0.762 -2.0828,2.4892 -0.7112,1.6764 -0.7112,4.5212 z"
         style="font-weight:600;font-family:'Cairo Play';-inkscape-font-specification:'Cairo Play Semi-Bold';fill:#ffffff"
         id="path12403" />
      <path
         d="m 168.62499,43.556874 v -4.9276 h 4.7244 v 4.9276 z"
         style="font-weight:600;font-family:'Cairo Play';-inkscape-font-specification:'Cairo Play Semi-Bold';fill:#ef8354;fill-opacity:1"
         id="path12884"
         sodipodi:nodetypes="ccccc" />
      <path
         d="m 259.60781,74.138474 v -25.4508 h 4.7244 v 25.4508 z"
         style="font-weight:600;font-family:'Cairo Play';-inkscape-font-specification:'Cairo Play Semi-Bold';fill:#ffffff"
         id="path13042"
         sodipodi:nodetypes="ccccc" />
    </g>
  </g>
</svg>
